<?xml version="1.0" encoding="utf-8"?>
<svg version="1.1" id="Layer_1" xmlns="http://www.w3.org/2000/svg" xmlns:xlink="http://www.w3.org/1999/xlink" x="0px" y="0px"
	 viewBox="0 0 612 155.3" style="enable-background:new 0 0 612 155.3;" xml:space="preserve">
<style type="text/css">
	.st0{fill:#012D67;}
	.st1{fill:#FA6B54;}
</style>
<g>
	<path class="st0" d="M440.3,72.6c-0.1-8.7,0-17.5,0-26c0.1-14.5,0.1-29.5-0.3-44.4l0-1.3h-15.9v58.2c-15.9-15.2-37-18.2-54.6-7.3
		c-16,9.9-27.7,31.5-18,57.6c5.7,14.6,18,24.5,33.7,27.2c2.9,0.5,5.8,0.8,8.7,0.8c13.9,0,27.1-5.7,36-15.8
		c10.8-11.5,10.6-29.2,10.4-44.8C440.3,75.4,440.3,74,440.3,72.6L440.3,72.6z M423.5,92c-0.6,20.3-15.9,29.4-29.8,29.4
		c-0.1,0-0.1,0-0.1,0c-9.4-0.5-17.1-4-22.4-10.3c-4.6-5.5-7.1-12.9-6.9-20.7c0.6-20.4,16-29.6,30.2-29.6c0,0,0.1,0,0.1,0
		C408.9,61.7,424.1,71.8,423.5,92L423.5,92z"/>
	<path class="st0" d="M543.5,90.7L543.5,90.7c-0.2-12.2-4.2-22.9-11.5-30.9c-6.5-7.1-15.6-12-25.6-13.8c-18.5-3.3-42.6,4-51.8,27.7
		c-9.7,26.8,2.8,48.4,19.6,57.8c6.6,3.7,14.1,5.7,21.4,5.7c2.3,0,4.7-0.2,7-0.6c9.6-1.6,18.3-6.6,25.5-14.5v13h15.1l0.1-1.2
		c0.6-10.3,0.4-21.1,0.3-31.5C543.5,98.6,543.5,94.6,543.5,90.7L543.5,90.7z M526.9,91c0.1,20.6-15.2,30.3-29.4,30.5
		c-20.3-0.4-29.6-15.8-29.7-30c-0.1-20.4,14.9-30.2,29-30.6C511.2,61,526.8,70.5,526.9,91L526.9,91z"/>
	<path class="st0" d="M609.4,47.2c-1.4,0-2.8,0-4.1,0c-2.9-0.1-5.7-0.1-8.5,0.1h0C554.6,51,555.9,86,557.1,117
		c0.2,6,0.4,11.6,0.4,17l0,1.3h15.6l0.1-1.2c0.3-6.9,0.1-13.9-0.1-20.7c-0.5-17.5-1-34,8.1-43c5.7-5.6,15-8.1,28.3-7.5l1.3,0.1V47.2
		L609.4,47.2L609.4,47.2z"/>
	<path class="st0" d="M339.6,68.6c-0.2-0.4-1-2.1-2.6-4.7l-0.9-1.3l-0.1,0.1c-14.5-19.9-36.4-20.2-51-14.1
		c-17.3,7.2-32.5,25.7-27.8,51.1c-0.8,0.5-2,1.2-4.1,2.5c-8.3,5.2-25.6,15.9-33.9,19c-10.8,3.5-21.9,1.2-29.8-6
		c-8.6-7.9-11.8-20.4-8.7-33.4c2.9-11.6,11.6-19.7,23.4-21.7c12-2.1,23.9,2.9,30.5,12.7l0.9,1.3L245.5,64l-0.7-0.9
		c-9.3-12.7-24.4-19.2-40.7-17.5c-16.4,1.8-30.4,11.8-36.6,26c-8.2,19.9-4.1,40.5,10.7,53.9c8.5,7.7,19.1,11.6,30.1,11.6
		c7.3,0,14.8-1.7,21.8-5.3l0.1,0.1l31.7-18c7.2,13.5,20.9,22.1,37.2,23c16.3,0.9,31-6.3,39.2-19.2l0.6-0.9l-9.9-9.7l-0.9,1.3
		c-6,9.1-15.1,14.1-25.7,14.1c-11.8,0-21.7-6.1-26.6-16.5l64.5-36.5L339.6,68.6L339.6,68.6z M319.2,64.6L272.5,91
		c-0.1-12.7,5.8-22.9,16.1-28.2c4.3-2.2,9-3.3,13.7-3.3C308.2,59.5,314.1,61.2,319.2,64.6z"/>
	<path class="st1" d="M56.9,39.3c-3.1-3.2-6.6-6.1-10.3-8.8c3.5-8.1,8.9-15.4,16.1-21.3c7.2,5.9,12.7,13.2,16.2,21.3
		c-3.8,2.6-7.2,5.5-10.3,8.8c-0.9-0.7-1.7-1.4-2.6-2.1l-3.2-2.3l-3.2,2.3C58.6,37.8,57.8,38.6,56.9,39.3z M31.1,32.7
		c-5.4,7.5-8.6,16-9.7,24.7c5.5,2.1,10.6,4.9,15.3,8.1c3-7.2,7.4-13.8,12.9-19.6C44.5,40.5,38.2,36,31.1,32.7z M56.1,86.3
		c1.4-0.8,2.8-1.5,4.2-2.2l2.4-1.1l2.4,1.1c1.4,0.7,2.8,1.4,4.2,2.2c3.1-5.1,6.7-9.8,11.1-13.9c-3.3-9.6-9.3-18.4-17.7-25.2
		C54.4,54,48.3,62.7,45.1,72.3C49.4,76.4,53.1,81.1,56.1,86.3z M104,57.4c-1.1-8.7-4.3-17.2-9.7-24.7c-7.2,3.3-13.4,7.8-18.5,13.2
		c5.5,5.8,9.9,12.5,12.9,19.6C93.4,62.3,98.5,59.6,104,57.4z M77.7,91.8c4.7,3.5,8.8,7.6,12.4,12.2c8.1-4.9,17-8.1,26.4-9.7
		c0.4-9.9-2.1-19.7-7.3-28.6C95.5,70.7,84.4,79.9,77.7,91.8L77.7,91.8z M47.8,91.8c-6.8-11.9-17.9-21.1-31.5-26.1
		C11,74.6,8.6,84.4,8.9,94.2c9.4,1.6,18.4,4.8,26.4,9.7C38.9,99.4,43.1,95.3,47.8,91.8z M67.8,154.4c29.8-2.3,53.7-24.2,56.3-51.6
		c-11.7,0.9-22.8,4.9-32.2,11.6l-4.5,3.2l-3-4.5C79,105,71.5,98.3,62.7,93.6C53.9,98.3,46.4,105,41,113.1l-3,4.5l-4.5-3.2
		c-9.5-6.7-20.5-10.7-32.2-11.6c2.6,27.5,26.5,49.3,56.3,51.6l0,0H67.8z"/>
</g>
</svg>
